<svg xmlns="http://www.w3.org/2000/svg" xmlns:xlink="http://www.w3.org/1999/xlink" version="1.1" x="0px" y="0px" viewBox="0 0 100 125"><path d="M1075,1200 l-950,0 c-100,0,-125,-50,-125,-125 l0,-375 l200,0 l0,200 l330,-300 l-330,-300 l0,200 l-200,0 l0,-375 c0,-100,25,-125,125,-125 l950,0 c75,0,125,25,125,125 l0,950 c0,75,-50,125,-125,125 Z M802,400 c-118,0,-204,86,-204,200 c0,114,85,200,204,200 c113,0,198,-86,198,-200 c0,-114,-86,-200,-198,-200 Z M802,400 " fill="#000000" stroke="none" stroke-dasharray="none" stroke-linecap="inherit" stroke-linejoin="inherit" stroke-width="1" transform="matrix(0.05,0.0,0.0,-0.05,20.0,80.0)"/><text x="0" y="115" fill="#000000" font-size="5px" font-weight="bold" font-family="'Helvetica Neue', Helvetica, Arial-Unicode, Arial, Sans-serif">Created by NeueDeutsche</text><text x="0" y="120" fill="#000000" font-size="5px" font-weight="bold" font-family="'Helvetica Neue', Helvetica, Arial-Unicode, Arial, Sans-serif">from the Noun Project</text></svg>