<svg xmlns="http://www.w3.org/2000/svg" xmlns:xlink="http://www.w3.org/1999/xlink" version="1.1" x="0px" y="0px" viewBox="0 0 100 125"><path d="M400,569 c0,114,85,200,198,200 c119,0,204,-86,204,-200 c0,-114,-86,-200,-204,-200 c-112,0,-198,86,-198,200 Z M51,469 l198,0 c51,0,51,0,51,51 l0,98 c0,51,0,51,-51,51 l-198,0 c-51,0,-51,0,-51,-51 l0,-98 c0,-51,0,-51,51,-51 Z M951,469 l198,0 c51,0,51,0,51,51 l0,98 c0,51,0,51,-51,51 l-198,0 c-51,0,-51,0,-51,-51 l0,-98 c0,-51,0,-51,51,-51 Z M951,469 " fill="#000000" stroke="none" stroke-dasharray="none" stroke-linecap="inherit" stroke-linejoin="inherit" stroke-width="1" transform="matrix(0.05,0.0,0.0,-0.05,20.0,80.0)"/><text x="0" y="115" fill="#000000" font-size="5px" font-weight="bold" font-family="'Helvetica Neue', Helvetica, Arial-Unicode, Arial, Sans-serif">Created by NeueDeutsche</text><text x="0" y="120" fill="#000000" font-size="5px" font-weight="bold" font-family="'Helvetica Neue', Helvetica, Arial-Unicode, Arial, Sans-serif">from the Noun Project</text></svg>